<svg xmlns="http://www.w3.org/2000/svg" width="29.469" height="29.694" viewBox="0 0 29.469 29.694"><g transform="translate(4.469)" fill="none"><path d="M3,0H22a3,3,0,0,1,3,3V22a3,3,0,0,1-3,3H3a3,3,0,0,1-3-3V3A3,3,0,0,1,3,0Z" stroke="none"/><path d="M 2.999998092651367 2 C 2.448598861694336 2 1.999998092651367 2.448600769042969 1.999998092651367 3 L 1.999998092651367 22 C 1.999998092651367 22.55139923095703 2.448598861694336 23 2.999998092651367 23 L 22 23 C 22.55139923095703 23 23 22.55139923095703 23 22 L 23 3 C 23 2.448600769042969 22.55139923095703 2 22 2 L 2.999998092651367 2 M 2.999998092651367 0 L 22 0 C 23.6568489074707 0 25 1.3431396484375 25 3 L 25 22 C 25 23.65685081481934 23.6568489074707 25 22 25 L 2.999998092651367 25 C 1.343149185180664 25 -1.9073486328125e-06 23.65685081481934 -1.9073486328125e-06 22 L -1.9073486328125e-06 3 C -1.9073486328125e-06 1.3431396484375 1.343149185180664 0 2.999998092651367 0 Z" stroke="none" fill="#fff"/></g><path d="M.912-7.656H5.419v4.584H7.565V-7.656h4.507V-9.624H7.565v-4.608H5.419v4.608H.912Z" transform="translate(10.705 21)" fill="#2f8d46"/><path d="M1.746,102H0v13.973a1.752,1.752,0,0,0,1.746,1.747h13.97v-1.747H1.746Z" transform="translate(0 -88.025)" fill="#2f8d46"/></svg>